<?xml version="1.0" encoding="utf-8"?>
<!-- Generator: Adobe Illustrator 23.0.1, SVG Export Plug-In . SVG Version: 6.00 Build 0)  -->
<svg version="1.1" id="Layer_1" xmlns="http://www.w3.org/2000/svg" xmlns:xlink="http://www.w3.org/1999/xlink" x="0px" y="0px"
	 viewBox="0 0 820 312" style="enable-background:new 0 0 820 312;" xml:space="preserve">
<style type="text/css">
	.st0{fill:none;stroke:#FFFFFF;stroke-width:2;stroke-miterlimit:10;}
</style>
<g>
	<path class="st0" d="M124.63,6.2h0.16c0,0.75-0.06,1.5-0.16,2.25c-0.22,3.87-0.86,10.2-1.93,19l0.32-0.16
		c10.2-2.15,21.77-4.03,34.71-5.64c12.94-1.61,26.14-2.87,39.62-3.78c13.47-0.91,26.87-1.26,40.18-1.05
		c13.31,0.22,24.8,1.07,34.46,2.58c0.43,0.11,0.99,0.22,1.69,0.32c0.7,0.11,1.15,0.16,1.37,0.16c0.21,0,0.51,0.06,0.89,0.16
		c0.38,0.11,0.62,0.19,0.73,0.24c0.11,0.06,0.32,0.14,0.64,0.24c0.32,0.11,0.54,0.22,0.64,0.32c0.11,0.11,0.32,0.27,0.64,0.48
		c0.32,0.22,0.62,0.4,0.89,0.56c0.27,0.16,0.67,0.43,1.21,0.81c0.54,0.38,1.07,0.72,1.61,1.05l-0.64,3.06
		c-3.54,0.97-5.34,1.45-5.4,1.45c-0.06,0-1.85-0.16-5.4-0.48c-39.08-3.86-80.36-2.74-123.85,3.38c-5.26,0.75-13.74,2.69-25.45,5.8
		c-1.72,13.21-4.3,31.46-7.73,54.76c-0.97,12.67-1.93,27-2.9,43c11.17-2.47,23.73-4.08,37.69-4.83c2.04-0.32,5.64-0.38,10.79-0.16
		c5.15,0.22,10.41,0.51,15.78,0.89c5.37,0.38,10.28,1.37,14.74,2.98c4.45,1.61,7.06,3.7,7.81,6.28c0,0.54,0,0.86,0,0.97
		c0,0.11-0.14,0.4-0.4,0.89c-0.27,0.48-0.51,0.94-0.72,1.37c-0.54,0-1.42,0.03-2.66,0.08c-1.24,0.06-2.17,0.08-2.82,0.08
		c-0.32-0.75-0.75-1.45-1.29-2.09c0.75,1.29,1.29,2.25,1.61,2.9l-4.03-1.61c-0.64-0.11-1.59-0.35-2.82-0.72
		c-1.24-0.38-2.12-0.67-2.66-0.89c-7.09-1.72-17.5-2.28-31.24-1.69c-13.74,0.59-27.22,2.17-40.42,4.75
		c-0.32,6.98-1.13,22.28-2.42,45.9c-1.93,36.5-2.52,68.66-1.77,96.47c0.64,6.55,0.16,10.41-1.45,11.59
		c-6.23,4.62-9.4-5.05-9.5-28.99c-0.32-35.65,1.56-76.6,5.64-122.88c-14.17,3.44-23.84,7.52-28.99,12.24
		c-1.93,0.11-3.33-0.13-4.19-0.73c-0.86-0.59-1.07-1.63-0.64-3.14c7.94-7.41,19.49-13.21,34.63-17.39
		c1.93-22.01,4.29-43.59,7.09-64.74c0-0.11,0.08-0.86,0.24-2.25c0.16-1.39,0.35-3.17,0.56-5.31c0.21-2.15,0.48-4.51,0.81-7.09
		c0.32-2.58,0.7-5.5,1.13-8.78c0.43-3.27,0.86-6.41,1.29-9.42c-2.9,0.75-8.08,2.2-15.54,4.35c-7.46,2.15-12.86,3.65-16.19,4.51
		c-10.31,2.79-16.05,4.19-17.23,4.19c-1.5-0.11-1.93-0.86-1.29-2.25c1.39-3,7.46-6.44,18.2-10.31c10.73-3.86,21.96-7.3,33.66-10.31
		c3.54-19.43,6.87-27.97,9.98-25.61C124.52,4.16,124.63,4.91,124.63,6.2z"/>
	<path class="st0" d="M258.46,170.47c-2.15,3.54-3.73,6.98-4.75,10.31c-1.02,3.33-1.48,6.23-1.37,8.7c0.11,2.47,0.48,4.62,1.13,6.44
		c0.64,1.83,1.5,3.2,2.58,4.11c1.07,0.91,2.2,1.37,3.38,1.37c4.19-0.11,9.61-2.5,16.27-7.17c6.66-4.67,11.92-8.88,15.78-12.64
		c1.29-1.61,2.36-1.45,3.22,0.48c0.54,1.61,0.48,2.74-0.16,3.38c-3.54,5.8-8.4,11.25-14.57,16.35c-6.18,5.1-12.38,7.81-18.6,8.13
		c-6.12,0.32-10.71-1.56-13.77-5.64c-3.06-4.08-4.54-9.39-4.43-15.94c-4.94,5.37-9.77,10.23-14.49,14.58
		c-4.73,4.35-9.5,7.97-14.33,10.87c-4.83,2.9-8.64,4.03-11.43,3.38c-6.33-1.5-8.16-6.82-5.48-15.94c2.58-8.91,8-17.66,16.27-26.25
		c9.45-9.77,18.14-14.23,26.09-13.37c4.19,0.32,7.73,2.31,10.63,5.96c1.29-1.18,2.36-2.09,3.22-2.74c0.64-0.54,1.72,0.14,3.22,2.01
		C258.35,168.72,258.89,169.93,258.46,170.47z M207.41,207.19c2.04-0.97,4.83-2.95,8.37-5.96c3.54-3,6.74-5.9,9.58-8.7
		c2.84-2.79,6.52-6.5,11.03-11.11c4.51-4.62,7.67-7.84,9.5-9.66c-1.29-1.39-2.98-2.12-5.07-2.17c-2.09-0.05-4.35,0.48-6.76,1.61
		c-2.42,1.13-4.94,2.63-7.57,4.51c-2.63,1.88-5.13,4.11-7.49,6.68c-2.36,2.58-4.51,5.18-6.44,7.81c-1.93,2.63-3.49,5.31-4.67,8.05
		c-1.18,2.74-1.77,5.23-1.77,7.49c0,0.86,0.08,1.4,0.24,1.61C206.52,207.57,206.87,207.51,207.41,207.19z"/>
	<path class="st0" d="M297.59,167.89v-0.16c0.11-0.32,0.21-0.62,0.32-0.89c0.11-0.27,0.27-0.54,0.48-0.8
		c0.21-0.27,0.59-0.48,1.13-0.64c0.54-0.16,1.18-0.24,1.93-0.24c1.07,0,1.9,0.22,2.5,0.64c0.59,0.43,1.05,1.24,1.37,2.42
		c0.32,1.4,0.51,3.14,0.56,5.23c0.05,2.09,0,3.95-0.16,5.56c-0.16,1.61-0.32,3.2-0.48,4.75c-0.16,1.56-0.24,2.39-0.24,2.5
		c0,0.97,0,2.52,0,4.67c1.61-5.04,3.27-9.61,4.99-13.69c1.72-4.08,3.65-7.89,5.8-11.43c2.15-3.54,4.43-6.17,6.84-7.89
		c2.42-1.72,4.86-2.25,7.33-1.61c1.93,0.54,3.49,2.12,4.67,4.75c1.18,2.63,2.07,5.53,2.66,8.7c0.59,3.17,1.21,6.23,1.85,9.18
		c0.64,2.95,1.72,5.13,3.22,6.52c1.5,1.4,3.49,1.5,5.96,0.32c1.39-0.75,3.11-1.61,5.15-2.58c1.61-0.75,3.11-0.64,4.51,0.32
		c0.54,1.4-0.46,3.17-2.98,5.31c-2.52,2.15-5.29,3.54-8.29,4.19c-3.01,0.64-5.58,0.48-7.73-0.48c-2.15-0.97-3.76-2.36-4.83-4.19
		c-1.07-1.82-2.04-4.24-2.9-7.25c-0.64-2.25-1.34-5.37-2.09-9.34c-0.75-3.97-1.29-6.44-1.61-7.41c-6.98,3.54-15.3,22.92-24.96,58.14
		c-0.32,0.97-0.54,1.66-0.64,2.09c-0.11,0.64-1.02,0.94-2.74,0.89c-1.72-0.06-2.58-0.35-2.58-0.89
		C297.49,197.1,297.81,178.2,297.59,167.89z"/>
	<path class="st0" d="M420.79,180.78c0.54-0.75,1.1-1.18,1.69-1.29c0.59-0.11,1.05,0.16,1.37,0.81c0.32,0.64,0.38,1.72,0.16,3.22
		c-3.65,8.8-9.66,16.4-18.04,22.79c-8.37,6.39-15.94,9.58-22.71,9.58c-9.98,0-16.37-4.62-19.16-13.85
		c-2.47-8.16-1.61-17.12,2.58-26.9c3.97-9.23,9.45-15.14,16.43-17.71c1.82-0.64,3.65-1.07,5.48-1.29c8.7-0.54,12.99,2.36,12.88,8.7
		c-0.11,5.69-3.22,11.92-9.34,18.68c-6.44,7.09-12.56,10.58-18.36,10.47c-0.75,0-1.45-0.11-2.09-0.32c0.32,4.08,1.5,7.3,3.54,9.66
		c2.04,2.36,5.05,3.44,9.02,3.22c4.72-0.32,9.53-1.77,14.41-4.35c4.88-2.58,9.21-5.74,12.96-9.5
		C415.37,188.94,418.43,184.96,420.79,180.78z M387.62,164.03c-3.86,0.64-7.25,3.2-10.15,7.65c-2.9,4.46-4.78,9.48-5.64,15.06
		c2.79,0.97,7.14-1.34,13.04-6.92c5.69-5.26,8.7-9.61,9.02-13.04C394.11,164.08,392.02,163.17,387.62,164.03z"/>
	<path class="st0" d="M525.31,181.1c1.07-0.75,1.66-0.99,1.77-0.72c0.11,0.27-0.05,0.72-0.48,1.37c-1.5,3.44-4.08,5.93-7.73,7.49
		c-3.65,1.56-6.76,2.34-9.34,2.34c-5.8,0-10.25-1.72-13.37-5.15c-0.22,1.61-0.43,3.17-0.64,4.67c-0.22,1.5-0.54,3.3-0.97,5.39
		c-0.43,2.09-0.91,4.05-1.45,5.88c-0.54,1.83-1.18,3.73-1.93,5.72c-0.75,1.99-1.67,3.79-2.74,5.4c-1.07,1.61-2.23,3.03-3.46,4.27
		c-1.24,1.24-2.66,2.2-4.27,2.9c-1.61,0.7-3.33,1.05-5.15,1.05c-3.97,0-7.25-2.25-9.82-6.76c-2.58-4.51-3.86-9.72-3.86-15.62
		c-1.18,6.66-3.28,12.94-6.28,18.84c-3.01,5.9-6.01,8.86-9.02,8.86c-3.87,0-7.17-1.37-9.9-4.11c-2.74-2.74-4.75-6.36-6.04-10.87
		c-1.29-4.51-2.23-9.26-2.82-14.25c-0.59-4.99-0.83-10.09-0.72-15.3c0.11-5.21,0.3-9.55,0.56-13.04c0.27-3.49,0.56-6.36,0.89-8.62
		c0.22-1.18,1.83-1.93,4.83-2.25c2.36-0.11,3.43,0.48,3.22,1.77c-0.54,5.05-0.56,12.11-0.08,21.18c0.48,9.07,1.66,17.53,3.54,25.36
		c1.88,7.84,4.16,11.6,6.84,11.27c2.15-0.11,4.19-3.57,6.12-10.39c1.93-6.82,3.73-14.92,5.4-24.32c1.66-9.39,2.76-15.06,3.3-16.99
		c0.32-1.07,1.13-1.64,2.42-1.69c1.29-0.05,2.09,0.62,2.42,2.01c0.21,1.29,0.32,3.01,0.32,5.15c1.07,27.06,4.51,40.58,10.31,40.58
		c1.29,0,2.5-0.35,3.62-1.05c1.13-0.7,2.12-1.8,2.98-3.3c0.86-1.5,1.61-3,2.25-4.51c0.64-1.5,1.15-3.43,1.53-5.8
		c0.38-2.36,0.72-4.4,1.05-6.12c0.32-1.72,0.56-3.87,0.72-6.44s0.27-4.51,0.32-5.8c0.05-1.29,0.11-3.03,0.16-5.23
		c0.05-2.2,0.08-3.41,0.08-3.62c0.11-2.36,1.07-4.13,2.9-5.31c1.61-1.07,2.58-0.38,2.9,2.09c0.75,5.15,2.2,9.26,4.35,12.32
		c2.15,3.06,4.67,4.89,7.57,5.48c2.9,0.59,5.85,0.54,8.86-0.16C519.46,184.35,522.41,183.03,525.31,181.1z"/>
	<path class="st0" d="M584.25,180.78c0.54-0.75,1.1-1.18,1.69-1.29c0.59-0.11,1.05,0.16,1.37,0.81c0.32,0.64,0.38,1.72,0.16,3.22
		c-3.65,8.8-9.66,16.4-18.04,22.79c-8.37,6.39-15.94,9.58-22.71,9.58c-9.99,0-16.37-4.62-19.17-13.85
		c-2.47-8.16-1.61-17.12,2.58-26.9c3.97-9.23,9.45-15.14,16.43-17.71c1.82-0.64,3.65-1.07,5.48-1.29c8.7-0.54,12.99,2.36,12.88,8.7
		c-0.11,5.69-3.22,11.92-9.34,18.68c-6.44,7.09-12.56,10.58-18.36,10.47c-0.75,0-1.45-0.11-2.09-0.32c0.32,4.08,1.5,7.3,3.54,9.66
		c2.04,2.36,5.04,3.44,9.02,3.22c4.72-0.32,9.53-1.77,14.41-4.35c4.88-2.58,9.21-5.74,12.96-9.5
		C578.83,188.94,581.89,184.96,584.25,180.78z M551.08,164.03c-3.87,0.64-7.25,3.2-10.15,7.65c-2.9,4.46-4.78,9.48-5.64,15.06
		c2.79,0.97,7.14-1.34,13.04-6.92c5.69-5.26,8.7-9.61,9.02-13.04C557.57,164.08,555.48,163.17,551.08,164.03z"/>
	<path class="st0" d="M644.64,188.67c0.86,0.54,1.07,1.29,0.64,2.25c-1.93,4.83-4.35,10.04-7.25,15.62
		c-2.9,5.58-6.26,11.22-10.07,16.91c-3.81,5.69-7.92,10.36-12.32,14.01c-4.4,3.65-8.54,5.42-12.4,5.31
		c-4.83-0.11-8.46-1.77-10.87-4.99c-2.42-3.22-4.05-7.57-4.91-13.04c-0.64-4.51-0.97-9.93-0.97-16.27c0-5.48,0.27-11.49,0.8-18.04
		c0.86-12.78,2.47-25.93,4.83-39.46c2.36-13.53,4.56-23.62,6.6-30.28c1.29-4.19,2.82-7.49,4.59-9.9s3.49-3.81,5.15-4.19
		c1.66-0.38,3.25-0.16,4.75,0.64c1.5,0.81,2.76,2.23,3.79,4.27c1.02,2.04,1.64,4.4,1.85,7.09c0.97,11.6-0.78,23.41-5.23,35.43
		c-4.46,12.02-10.5,23.46-18.12,34.3c-1.5,23.73-0.59,38.33,2.74,43.81c0.97,1.61,2.17,2.6,3.62,2.98c1.45,0.38,3.03,0.08,4.75-0.89
		c1.72-0.97,3.49-2.2,5.31-3.7c1.82-1.5,3.78-3.52,5.88-6.04c2.09-2.52,4.03-4.94,5.8-7.25c1.77-2.31,3.68-4.99,5.72-8.05
		c2.04-3.06,3.73-5.64,5.07-7.73c1.34-2.09,2.84-4.45,4.51-7.09c1.66-2.63,2.76-4.32,3.3-5.07c0.32-0.54,0.8-0.81,1.45-0.81
		C644,188.51,644.32,188.56,644.64,188.67z M609.86,113.78c-2.36,2.15-4.78,8.99-7.25,20.53c-2.47,11.54-4.4,24.56-5.8,39.05
		c5.37-10.52,9.58-21.02,12.64-31.48c3.06-10.47,3.62-19.08,1.69-25.85C610.71,114.75,610.28,114,609.86,113.78z"/>
	<path class="st0" d="M705.52,188.67c0.86,0.54,1.07,1.29,0.64,2.25c-1.93,4.83-4.35,10.04-7.25,15.62
		c-2.9,5.58-6.26,11.22-10.07,16.91c-3.81,5.69-7.92,10.36-12.32,14.01c-4.4,3.65-8.54,5.42-12.4,5.31
		c-4.83-0.11-8.46-1.77-10.87-4.99c-2.42-3.22-4.05-7.57-4.91-13.04c-0.64-4.51-0.97-9.93-0.97-16.27c0-5.48,0.27-11.49,0.8-18.04
		c0.86-12.78,2.47-25.93,4.83-39.46c2.36-13.53,4.56-23.62,6.6-30.28c1.29-4.19,2.82-7.49,4.59-9.9s3.49-3.81,5.15-4.19
		c1.66-0.38,3.25-0.16,4.75,0.64c1.5,0.81,2.76,2.23,3.79,4.27c1.02,2.04,1.64,4.4,1.85,7.09c0.97,11.6-0.78,23.41-5.23,35.43
		c-4.46,12.02-10.5,23.46-18.12,34.3c-1.5,23.73-0.59,38.33,2.74,43.81c0.97,1.61,2.17,2.6,3.62,2.98c1.45,0.38,3.03,0.08,4.75-0.89
		c1.72-0.97,3.49-2.2,5.31-3.7c1.82-1.5,3.78-3.52,5.88-6.04c2.09-2.52,4.03-4.94,5.8-7.25c1.77-2.31,3.68-4.99,5.72-8.05
		c2.04-3.06,3.73-5.64,5.07-7.73c1.34-2.09,2.84-4.45,4.51-7.09c1.66-2.63,2.76-4.32,3.3-5.07c0.32-0.54,0.8-0.81,1.45-0.81
		C704.87,188.51,705.2,188.56,705.52,188.67z M670.73,113.78c-2.36,2.15-4.78,8.99-7.25,20.53c-2.47,11.54-4.4,24.56-5.8,39.05
		c5.37-10.52,9.58-21.02,12.64-31.48c3.06-10.47,3.62-19.08,1.69-25.85C671.59,114.75,671.16,114,670.73,113.78z"/>
</g>
</svg>
