<?xml version="1.0" encoding="utf-8"?>
<!-- Generator: Adobe Illustrator 23.0.1, SVG Export Plug-In . SVG Version: 6.00 Build 0)  -->
<svg version="1.1" id="Layer_1" xmlns="http://www.w3.org/2000/svg" xmlns:xlink="http://www.w3.org/1999/xlink" x="0px" y="0px"
	 viewBox="0 0 820 312" style="enable-background:new 0 0 820 312;" xml:space="preserve">
<style type="text/css">
	.st0{fill:none;stroke:#FFFFFF;stroke-width:3;}
</style>
<g>
	<path class="st0" d="M86.3,161.2c-7.5,7.3-19,10.9-34.5,10.9H26.4v55.3H9.1V95h42.8c14.9,0,26.3,3.6,34.1,10.8
		c7.8,7.2,11.7,16.5,11.7,27.9C97.6,144.8,93.9,153.9,86.3,161.2z M73.1,151.6c4.6-4.2,6.8-10.1,6.8-17.9c0-16.3-9.4-24.5-28.1-24.5
		H26.4v48.6h25.5C61.5,157.9,68.6,155.8,73.1,151.6z"/>
	<path class="st0" d="M112.1,103c-2.3-2.3-3.4-5.1-3.4-8.4c0-3.3,1.1-6.1,3.4-8.4c2.3-2.3,5.1-3.4,8.4-3.4c3.2,0,5.9,1.1,8.1,3.4
		c2.2,2.3,3.3,5.1,3.3,8.4c0,3.3-1.1,6.1-3.3,8.4c-2.2,2.3-4.9,3.4-8.1,3.4C117.1,106.4,114.4,105.3,112.1,103z M128.8,123.3v104.1
		h-17.3V123.3H128.8z"/>
	<path class="st0" d="M205,227.4l-24.7-38.8l-23.8,38.8h-18l33.6-51.7l-33.6-52.4h19.6l24.7,38.6l23.6-38.6h18.1l-33.4,51.5
		l33.6,52.6H205z"/>
	<path class="st0" d="M253,222.5c-7.9-4.4-14.1-10.7-18.6-18.9c-4.5-8.2-6.7-17.6-6.7-28.4c0-10.6,2.3-20,6.9-28.2
		c4.6-8.2,10.9-14.4,18.9-18.8c8-4.4,16.9-6.6,26.8-6.6c9.9,0,18.8,2.2,26.8,6.6s14.3,10.6,18.9,18.7c4.6,8.1,6.9,17.5,6.9,28.3
		c0,10.8-2.4,20.2-7.1,28.4c-4.8,8.2-11.2,14.5-19.3,18.9c-8.1,4.4-17.1,6.6-27,6.6C269.7,229.1,260.9,226.9,253,222.5z
		 M296.9,209.6c5.4-2.9,9.8-7.3,13.2-13.1c3.4-5.8,5-12.9,5-21.3c0-8.4-1.6-15.5-4.9-21.3c-3.3-5.8-7.6-10.2-12.9-13
		c-5.3-2.9-11.1-4.3-17.3-4.3c-6.3,0-12.1,1.4-17.4,4.3c-5.3,2.9-9.5,7.2-12.6,13c-3.2,5.8-4.8,12.9-4.8,21.3
		c0,8.5,1.5,15.6,4.7,21.5c3.1,5.8,7.2,10.2,12.4,13c5.2,2.8,10.9,4.3,17.1,4.3C285.7,214,291.5,212.5,296.9,209.6z"/>
	<path class="st0" d="M429.6,132.9c7.9,7.7,11.8,18.7,11.8,33.2v61.4h-17.1v-58.9c0-10.4-2.6-18.3-7.8-23.8
		c-5.2-5.5-12.3-8.3-21.3-8.3c-9.1,0-16.4,2.8-21.8,8.5c-5.4,5.7-8.1,14-8.1,24.9v57.6h-17.3V123.3h17.3v14.8
		c3.4-5.3,8.1-9.4,14-12.4c5.9-2.9,12.4-4.4,19.5-4.4C411.5,121.4,421.7,125.3,429.6,132.9z"/>
	<path class="st0" d="M481,222.5c-7.9-4.4-14.1-10.7-18.6-18.9c-4.5-8.2-6.7-17.6-6.7-28.4c0-10.6,2.3-20,6.9-28.2
		c4.6-8.2,10.9-14.4,18.9-18.8s16.9-6.6,26.8-6.6c9.9,0,18.8,2.2,26.8,6.6s14.3,10.6,18.9,18.7c4.6,8.1,6.9,17.5,6.9,28.3
		c0,10.8-2.4,20.2-7.1,28.4s-11.2,14.5-19.3,18.9c-8.1,4.4-17.1,6.6-27,6.6C497.7,229.1,488.9,226.9,481,222.5z M524.9,209.6
		c5.4-2.9,9.8-7.3,13.2-13.1c3.4-5.8,5-12.9,5-21.3c0-8.4-1.6-15.5-4.9-21.3c-3.3-5.8-7.6-10.2-12.9-13c-5.3-2.9-11.1-4.3-17.3-4.3
		c-6.3,0-12.1,1.4-17.4,4.3c-5.3,2.9-9.5,7.2-12.6,13c-3.2,5.8-4.8,12.9-4.8,21.3c0,8.5,1.5,15.6,4.7,21.5c3.1,5.8,7.3,10.2,12.4,13
		c5.2,2.8,10.9,4.3,17.1,4.3C513.7,214,519.5,212.5,524.9,209.6z"/>
	<path class="st0" d="M576.6,103c-2.3-2.3-3.4-5.1-3.4-8.4c0-3.3,1.1-6.1,3.4-8.4c2.3-2.3,5.1-3.4,8.4-3.4c3.2,0,5.9,1.1,8.1,3.4
		c2.2,2.3,3.3,5.1,3.3,8.4c0,3.3-1.1,6.1-3.3,8.4c-2.2,2.3-4.9,3.4-8.1,3.4C581.7,106.4,578.9,105.3,576.6,103z M593.3,123.3v104.1
		h-17.3V123.3H593.3z"/>
	<path class="st0" d="M615.2,147c4.3-8,10.2-14.3,17.8-18.7c7.5-4.4,16-6.6,25.4-6.6c8.1,0,15.6,1.9,22.6,5.6
		c7,3.7,12.3,8.6,16,14.7V86.8h17.5v140.6h-17.5v-19.6c-3.4,6.2-8.5,11.3-15.2,15.3c-6.7,4-14.6,6-23.6,6c-9.2,0-17.6-2.3-25.2-6.8
		c-7.5-4.6-13.5-11-17.8-19.2c-4.3-8.2-6.5-17.6-6.5-28.1C608.7,164.4,610.9,155,615.2,147z M692.1,154.7
		c-3.2-5.8-7.4-10.3-12.8-13.4c-5.4-3.1-11.3-4.7-17.8-4.7c-6.5,0-12.4,1.5-17.7,4.6c-5.3,3-9.6,7.5-12.7,13.3
		c-3.2,5.8-4.8,12.7-4.8,20.5c0,8,1.6,14.9,4.8,20.8c3.2,5.9,7.4,10.4,12.7,13.5c5.3,3.1,11.2,4.7,17.7,4.7c6.5,0,12.4-1.5,17.8-4.7
		c5.4-3.1,9.7-7.6,12.8-13.5c3.2-5.9,4.8-12.8,4.8-20.6C696.9,167.3,695.3,160.5,692.1,154.7z"/>
	<path class="st0" d="M751.4,225.1c-6.3-2.7-11.3-6.5-15-11.4c-3.7-4.9-5.7-10.5-6.1-16.8h17.9c0.5,5.2,2.9,9.4,7.3,12.7
		c4.4,3.3,10.1,4.9,17.2,4.9c6.6,0,11.8-1.5,15.6-4.4c3.8-2.9,5.7-6.6,5.7-11c0-4.6-2-7.9-6.1-10.2c-4.1-2.2-10.3-4.4-18.8-6.6
		c-7.7-2-14-4.1-18.9-6.2c-4.9-2.1-9.1-5.2-12.5-9.3c-3.5-4.1-5.2-9.5-5.2-16.2c0-5.3,1.6-10.2,4.8-14.6c3.2-4.4,7.7-7.9,13.5-10.5
		c5.8-2.6,12.5-3.9,20-3.9c11.5,0,20.8,2.9,27.9,8.7c7.1,5.8,10.9,13.8,11.4,23.9h-17.3c-0.4-5.4-2.6-9.8-6.6-13.1
		c-4-3.3-9.3-4.9-16.1-4.9c-6.2,0-11.1,1.3-14.8,4c-3.7,2.7-5.5,6.1-5.5,10.5c0,3.4,1.1,6.2,3.3,8.5c2.2,2.2,5,4,8.4,5.3
		c3.4,1.3,8,2.8,14,4.5c7.5,2,13.6,4,18.2,6c4.7,2,8.7,4.9,12.1,8.8c3.4,3.9,5.1,9.1,5.2,15.4c0,5.7-1.6,10.8-4.8,15.4
		c-3.2,4.6-7.6,8.1-13.4,10.7c-5.8,2.6-12.4,3.9-19.9,3.9C764.9,229.1,757.8,227.8,751.4,225.1z"/>
</g>
</svg>
